<svg id="Layer_1" data-name="Layer 1" xmlns="http://www.w3.org/2000/svg" viewBox="0 0 1099.84 1012.84"><defs><style>.cls-1{fill:none;}.cls-2{fill:#f39200;}.cls-3{fill:#f73c14;}.cls-4{fill:#fff;}</style></defs><path class="cls-1" d="M613.14,359.73q37.35,4.15,74.67,8.71,15.29,1.9,30.57,3.87a169.63,169.63,0,0,0,.1-24.48q-15.3,1.88-30.61,3.68Q650.52,355.85,613.14,359.73Z"/><path class="cls-1" d="M611.89,372.06q35.82,11.35,71.54,23.11,14.63,4.84,29.23,9.76a169.83,169.83,0,0,0,4.84-24q-15.36-1.15-30.72-2.37Q649.31,375.54,611.89,372.06Z"/><path class="cls-1" d="M612,347.4q37.45-3.22,74.94-6,15.39-1.12,30.77-2.17a168.18,168.18,0,0,0-4.7-24q-14.64,4.81-29.32,9.58Q647.88,336.29,612,347.4Z"/><path class="cls-1" d="M486.57,359.33q-37.29-4.14-74.54-8.69-15.28-1.9-30.57-3.87a172,172,0,0,0-.1,24.44q15.31-1.87,30.61-3.67Q449.25,363.2,486.57,359.33Z"/><path class="cls-1" d="M491.47,335.1Q458.61,317,425.93,298.55q-13.41-7.62-26.79-15.29a167.17,167.17,0,0,0-9.42,22.55q14.85,4.14,29.69,8.33Q455.5,324.4,491.47,335.1Z"/><path class="cls-1" d="M487.75,371.69q-37.38,3.22-74.81,6-15.37,1.13-30.76,2.17a166.25,166.25,0,0,0,4.69,24q14.64-4.81,29.32-9.58Q451.91,382.77,487.75,371.69Z"/><path class="cls-1" d="M487.83,347q-35.77-11.33-71.42-23.06-14.62-4.85-29.24-9.76a169.25,169.25,0,0,0-4.82,24q15.36,1.15,30.71,2.37Q450.47,343.5,487.83,347Z"/><path class="cls-1" d="M514.56,412.09q-24.16,28.71-48.64,57.16-10.08,11.65-20.2,23.27A166.66,166.66,0,0,0,466,506.18q6.94-13.77,14-27.5Q497,445.28,514.56,412.09Z"/><path class="cls-1" d="M505,404.18q-29.3,23.44-58.85,46.57-12.15,9.47-24.34,18.87A169.8,169.8,0,0,0,439,487q9.5-12.14,19-24.24Q481.34,433.32,505,404.18Z"/><path class="cls-1" d="M525.49,418q-18.09,32.88-36.55,65.54-7.62,13.41-15.29,26.79a166.77,166.77,0,0,0,22.56,9.42q4.13-14.85,8.32-29.69Q514.79,454,525.49,418Z"/><path class="cls-1" d="M497.13,394.56q-33.3,17.28-66.8,34.19-13.77,6.92-27.58,13.77a169.1,169.1,0,0,0,13.53,20.35q11.67-10,23.39-20Q468.26,418.52,497.13,394.56Z"/><path class="cls-1" d="M491.31,383.59q-36,10.44-72.19,20.5-14.87,4.1-29.75,8.13a168.43,168.43,0,0,0,9.3,22.6q13.41-7.57,26.87-15.1Q458.31,401.45,491.31,383.59Z"/><path class="cls-1" d="M608.25,383.91q32.93,18.12,65.66,36.62,13.41,7.62,26.79,15.29a167.74,167.74,0,0,0,9.43-22.59q-14.85-4.14-29.69-8.32Q644.28,394.62,608.25,383.91Z"/><path class="cls-1" d="M585.21,307.08q24.21-28.75,48.73-57.25,10.08-11.67,20.2-23.28a167.64,167.64,0,0,0-20.3-13.68q-6.95,13.77-14,27.5Q602.75,273.84,585.21,307.08Z"/><path class="cls-1" d="M550.12,296.18q4.14-37.29,8.69-74.54,1.91-15.28,3.87-30.57a170.52,170.52,0,0,0-24.44-.1q1.88,15.3,3.68,30.61Q546.24,258.86,550.12,296.18Z"/><path class="cls-1" d="M537.76,297.35q-3.22-37.38-6-74.8-1.12-15.37-2.17-30.76a167.6,167.6,0,0,0-24,4.68q4.82,14.66,9.58,29.32Q526.68,261.51,537.76,297.35Z"/><path class="cls-1" d="M514.89,306.74q-17.28-33.3-34.19-66.8-6.92-13.78-13.77-27.58a170.23,170.23,0,0,0-20.35,13.52q10.05,11.69,20.05,23.4Q490.93,277.87,514.89,306.74Z"/><path class="cls-1" d="M525.87,300.92q-10.46-36-20.5-72.19-4.11-14.86-8.14-29.75a168.43,168.43,0,0,0-22.6,9.3q7.58,13.41,15.1,26.87Q508,267.93,525.87,300.92Z"/><path class="cls-1" d="M608.4,335.52q36.11-10.45,72.33-20.53,14.87-4.1,29.75-8.13a168.45,168.45,0,0,0-9.31-22.64q-13.42,7.57-26.87,15.11Q641.45,317.63,608.4,335.52Z"/><path class="cls-1" d="M574.3,301.2q18.13-32.93,36.62-65.66,7.62-13.41,15.29-26.78a167.24,167.24,0,0,0-22.59-9.44Q599.5,214.19,595.3,229,585,265.18,574.3,301.2Z"/><path class="cls-1" d="M562.47,297.5q11.35-35.79,23.09-71.47,4.85-14.64,9.76-29.24a168.14,168.14,0,0,0-24-4.83q-1.15,15.36-2.37,30.71Q566,260.11,562.47,297.5Z"/><path class="cls-1" d="M602.6,324.58q33.36-17.31,66.92-34.25,13.79-6.91,27.58-13.77a169.64,169.64,0,0,0-13.54-20.39q-11.68,10.05-23.4,20.05Q631.53,300.58,602.6,324.58Z"/><path class="cls-1" d="M505.27,314.59q-23.44-29.29-46.57-58.85-9.46-12.15-18.87-24.35a169.9,169.9,0,0,0-17.35,17.22q12.15,9.5,24.24,19Q476.14,290.95,505.27,314.59Z"/><path class="cls-1" d="M594.77,315q29.34-23.49,59-46.65,12.15-9.45,24.34-18.87a169.28,169.28,0,0,0-17.24-17.37q-9.5,12.13-19,24.23Q618.45,285.78,594.77,315Z"/><path class="cls-1" d="M537.38,421.56Q526,457.37,514.3,493q-4.84,14.63-9.76,29.24a171,171,0,0,0,24,4.83q1.15-15.36,2.37-30.72Q533.91,459,537.38,421.56Z"/><path class="cls-1" d="M497.36,324.16Q468.65,300,440.21,275.53q-11.67-10.08-23.28-20.21a169.92,169.92,0,0,0-13.66,20.27q13.77,6.95,27.5,14Q464.18,306.65,497.36,324.16Z"/><path class="cls-1" d="M558,497.48q-4.35-37.35-8.23-74.73-4.14,37.35-8.71,74.67-1.9,15.29-3.87,30.57a169.64,169.64,0,0,0,24.48.1Q559.75,512.79,558,497.48Z"/><path class="cls-1" d="M602.37,394.82q28.77,24.19,57.26,48.73,11.65,10.06,23.27,20.2a169.23,169.23,0,0,0,13.68-20.3q-13.77-6.94-27.5-13.95Q635.62,412.36,602.37,394.82Z"/><path class="cls-1" d="M584.88,412.21q17.29,33.36,34.24,66.92,6.92,13.77,13.77,27.58a167.75,167.75,0,0,0,20.39-13.55q-10-11.67-20-23.39Q608.89,441.14,584.88,412.21Z"/><path class="cls-1" d="M594.48,404.37q23.49,29.36,46.65,59,9.45,12.17,18.87,24.35a170.3,170.3,0,0,0,17.37-17.24q-12.14-9.49-24.23-19Q623.67,428.06,594.48,404.37Z"/><path class="cls-1" d="M562.06,421.57q3.21,37.46,6,74.94,1.11,15.38,2.17,30.77a168.45,168.45,0,0,0,24-4.7q-4.83-14.66-9.59-29.32Q573.17,457.49,562.06,421.57Z"/><path class="cls-1" d="M573.93,418q10.46,36.11,20.53,72.32,4.1,14.88,8.13,29.76a168.45,168.45,0,0,0,22.64-9.31q-7.58-13.42-15.11-26.87Q591.82,451.06,573.93,418Z"/><path class="cls-2" d="M613.14,359.73q37.38-3.9,74.73-8.22,15.3-1.81,30.61-3.68-.3-4.35-.81-8.63-15.39,1.05-30.77,2.17-37.49,2.78-74.94,6,35.91-11.13,71.69-22.65Q698.32,320,713,315.17q-1.14-4.2-2.49-8.31-14.88,4-29.75,8.13-36.22,10-72.33,20.53,33-17.91,65.9-36.19,13.44-7.53,26.87-15.11c-1.3-2.59-2.65-5.15-4.07-7.66q-13.8,6.85-27.58,13.77Q636,307.25,602.6,324.58q28.9-24,57.56-48.36,11.72-10,23.4-20.05c-1.77-2.29-3.61-4.53-5.49-6.72q-12.2,9.41-24.34,18.87-29.62,23.16-59,46.65,23.67-29.19,47-58.66,9.54-12.09,19-24.23-3.27-2.85-6.69-5.53-10.12,11.63-20.2,23.28-24.54,28.47-48.73,57.25,17.52-33.25,34.68-66.71,7-13.73,14-27.5c-2.5-1.43-5-2.81-7.63-4.11q-7.68,13.37-15.29,26.78-18.51,32.73-36.62,65.66,10.69-36,21-72.19,4.19-14.83,8.32-29.69c-2.73-.91-5.5-1.76-8.3-2.53q-4.91,14.61-9.76,29.24Q573.8,261.7,562.47,297.5q3.46-37.39,6.51-74.83,1.21-15.36,2.37-30.71c-1.31-.17-2.61-.33-3.93-.46-1.58-.17-3.16-.31-4.74-.43q-2,15.28-3.87,30.57-4.56,37.25-8.69,74.54-3.89-37.32-8.2-74.6-1.81-15.3-3.68-30.61-4.37.3-8.67.82,1,15.38,2.17,30.76,2.79,37.43,6,74.8-11.1-35.84-22.6-71.56-4.77-14.67-9.58-29.32c-2.81.77-5.59,1.6-8.35,2.51q4,14.88,8.14,29.75,10,36.16,20.5,72.19-17.88-33-36.14-65.77-7.51-13.46-15.1-26.87-3.9,1.93-7.7,4.08,6.85,13.8,13.77,27.58,16.91,33.51,34.19,66.8-24-28.86-48.26-57.46-10-11.72-20.05-23.4-3.45,2.67-6.75,5.51,9.41,12.2,18.87,24.35,23.12,29.56,46.57,58.85Q476.13,291,446.72,267.65q-12.11-9.56-24.24-19-2.85,3.28-5.55,6.71,11.63,10.14,23.28,20.21,28.43,24.5,57.15,48.63-33.19-17.49-66.59-34.61-13.72-7-27.5-14-2.16,3.77-4.13,7.67,13.38,7.68,26.79,15.29Q458.59,317,491.47,335.1q-36-10.68-72.06-21-14.84-4.2-29.69-8.33-1.38,4.13-2.55,8.34,14.61,4.91,29.24,9.76,35.64,11.74,71.42,23.06-37.36-3.47-74.77-6.5-15.35-1.22-30.71-2.37c-.17,1.31-.33,2.62-.46,3.93-.17,1.59-.3,3.17-.43,4.74q15.29,2,30.57,3.87,37.25,4.58,74.54,8.69-37.32,3.89-74.6,8.21-15.3,1.8-30.61,3.67.3,4.37.82,8.67,15.39-1,30.76-2.17,37.43-2.77,74.81-6-35.85,11.1-71.56,22.6-14.67,4.77-29.32,9.58c.76,2.81,1.59,5.6,2.5,8.35q14.88-4,29.75-8.13,36.17-10,72.19-20.5-33,17.88-65.77,36.13-13.46,7.51-26.87,15.1c1.3,2.6,2.65,5.17,4.08,7.7q13.8-6.86,27.58-13.77,33.51-16.9,66.8-34.19-28.86,24-57.46,48.27-11.71,10-23.39,20,2.66,3.45,5.51,6.75,12.19-9.4,24.34-18.87,29.56-23.12,58.85-46.57Q481.36,433.33,458,462.73,448.5,474.84,439,487q3.28,2.85,6.72,5.55,10.13-11.61,20.2-23.27,24.49-28.44,48.64-57.16-17.5,33.2-34.62,66.59-7,13.72-14,27.5c2.52,1.44,5.07,2.82,7.67,4.13q7.68-13.38,15.29-26.79,18.48-32.65,36.55-65.54-10.68,36-21,72.06-4.2,14.83-8.32,29.69,4.11,1.38,8.33,2.55,4.92-14.61,9.76-29.24,11.76-35.67,23.08-71.48-3.45,37.4-6.5,74.83-1.21,15.36-2.37,30.72c1.3.16,2.6.32,3.91.45,1.58.17,3.15.31,4.72.43q2-15.29,3.87-30.57,4.59-37.31,8.71-74.67,3.9,37.38,8.23,74.73,1.8,15.3,3.67,30.61,4.35-.3,8.64-.81-1.05-15.39-2.17-30.77-2.79-37.49-6-74.94,11.12,35.91,22.64,71.69,4.77,14.67,9.59,29.32,4.19-1.14,8.3-2.49-4-14.88-8.13-29.76Q584.41,454.11,573.93,418q17.91,33,36.19,65.9,7.53,13.44,15.11,26.87c2.59-1.3,5.15-2.65,7.66-4.07q-6.85-13.8-13.77-27.58-16.92-33.57-34.24-66.92,24,28.91,48.35,57.56,10,11.72,20,23.39,3.44-2.66,6.72-5.48-9.4-12.19-18.87-24.35-23.14-29.62-46.65-59,29.19,23.69,58.66,47,12.09,9.54,24.23,19,2.85-3.27,5.53-6.69-11.61-10.12-23.27-20.2Q631.15,419,602.37,394.82q33.25,17.52,66.71,34.68,13.74,7,27.5,13.95c1.44-2.5,2.81-5.05,4.12-7.63q-13.38-7.68-26.79-15.29Q641.18,402,608.25,383.91q36,10.69,72.19,21,14.84,4.18,29.69,8.32c.91-2.74,1.76-5.5,2.53-8.3q-14.61-4.9-29.23-9.76-35.71-11.78-71.54-23.11,37.43,3.46,74.89,6.51,15.36,1.21,30.72,2.37c.16-1.3.32-2.6.46-3.91.16-1.58.3-3.15.42-4.72q-15.28-2-30.57-3.87Q650.51,363.87,613.14,359.73Z"/><path class="cls-3" d="M771.4,366.17h0c.06-1.94.1-3.88.1-5.82a.66.66,0,0,1,0-.14c0-.05,0-.09,0-.14,0-1.94,0-3.88-.06-5.82h0a224.19,224.19,0,0,0-3-31.41h0c-.65-3.92-1.4-7.83-2.26-11.7h0a219.15,219.15,0,0,0-9-30.24h0q-2.12-5.58-4.53-11h0A219.4,219.4,0,0,0,737.83,242h0q-3.17-5-6.62-9.92h0a224.13,224.13,0,0,0-20-24.42h0c-1.34-1.42-2.69-2.83-4.07-4.22a124395540458.58,124395540458.58,0,0,0-.14-.14c-1.38-1.39-2.78-2.75-4.19-4.1h0A224.53,224.53,0,0,0,678.52,179h0q-4.86-3.48-9.88-6.68h0a219.39,219.39,0,0,0-27.77-15h0q-5.43-2.44-11-4.6h0a219.58,219.58,0,0,0-30.18-9.22h0q-5.82-1.32-11.71-2.33h0a223.87,223.87,0,0,0-31.39-3.14h0c-2-.06-4-.1-6-.1h-.69q-2.64,0-5.28.06h0a222.61,222.61,0,0,0-37.17,4l-.15,0a219.87,219.87,0,0,0-36.05,10.24h0a221.11,221.11,0,0,0-77.54,50.11q-2.11,2.12-4.17,4.27h0a222.93,222.93,0,0,0-26.81,34.18h0A222.09,222.09,0,0,0,362,477.1h0a223.68,223.68,0,0,0,30.76,38.64A220.88,220.88,0,0,0,470,566.32h0A221.09,221.09,0,0,0,543.28,581h0c2,.06,4,.1,6,.1h.69A223.53,223.53,0,0,0,592.5,577h0a219.74,219.74,0,0,0,109.33-56.21h0c1.44-1.36,2.88-2.74,4.29-4.14s2.8-2.83,4.18-4.27h0a223.57,223.57,0,0,0,20.12-24.3h0q3.48-4.86,6.68-9.88h0a218.83,218.83,0,0,0,15-27.78h0q2.46-5.44,4.6-11h0a217.92,217.92,0,0,0,9.22-30.19h0q1.32-5.81,2.33-11.7h0a223.87,223.87,0,0,0,3.13-31.39Zm-14.22-12-146.64-.45,144-28.18A210.72,210.72,0,0,1,757.18,354.19ZM511.44,312.35l-103.38-104a209.79,209.79,0,0,1,22.25-18.21Zm-71.2-128.84A205.27,205.27,0,0,1,465.63,170l55.75,135.75Zm49.1,169.87-146.64-.44a210.21,210.21,0,0,1,2.86-28.61ZM347.9,312.62a205.58,205.58,0,0,1,8.4-27.51l135.41,56.57Zm141.41,52.69-144,28.19a209.13,209.13,0,0,1-2.68-28.63ZM491.6,377,355.85,432.78a204.59,204.59,0,0,1-8.23-27.56ZM398.73,501.39a208.47,208.47,0,0,1-18.2-22.25L502.74,398Zm112.42-94.91L429.29,528.2a211.13,211.13,0,0,1-22.14-18.34Zm9.91,6.66L464.49,548.55a205.87,205.87,0,0,1-25.31-13.66Zm62.83,151a209.13,209.13,0,0,1-28.63,2.69l.45-146.65ZM567.42,417.85,623.17,553.6a204.2,204.2,0,0,1-27.56,8.24Zm11-4.53L659.6,535.55a205.27,205.27,0,0,1-25.39,13.52Zm173.77-99.48L608.24,342,744,286.28A206.09,206.09,0,0,1,752.23,313.84Zm-12.77-38.6L603.71,331l122.23-81.14A205.27,205.27,0,0,1,739.46,275.24Zm-20.14-35.32L597.11,321l104-103.37A209.79,209.79,0,0,1,719.32,239.92ZM692.7,209.2l-104,103.38,81.86-121.72A209,209,0,0,1,692.7,209.2Zm-32-25L578.79,305.92l56.57-135.41A206.6,206.6,0,0,1,660.67,184.17Zm-36.33-18.26-56.57,135.4,29.06-143.8A205.58,205.58,0,0,1,624.34,165.91Zm-39.22-10.74L556.07,299l.45-146.64A208.64,208.64,0,0,1,585.12,155.17Zm-41,143.74L516,155a208.84,208.84,0,0,1,28.62-2.69ZM504.23,157.22l28.19,144L476.67,165.46A205.07,205.07,0,0,1,504.23,157.22ZM503,320.76,381.25,238.9a210.11,210.11,0,0,1,18.34-22.14Zm-6.66,9.91L360.9,274.1a205.44,205.44,0,0,1,13.67-25.32ZM360.39,443.82l135.74-55.75L373.9,469.21A203.86,203.86,0,0,1,360.39,443.82Zm171.68-26.08L503,561.55a205.58,205.58,0,0,1-27.51-8.4ZM514.72,563.89l29-143.78-.44,146.64A208.79,208.79,0,0,1,514.72,563.89Zm154.81-35L588.41,406.72l103.37,104A209.79,209.79,0,0,1,669.53,528.93Zm30.72-26.63-103.38-104,121.72,81.86A207.68,207.68,0,0,1,700.25,502.3Zm25-32L603.53,388.39,738.94,445A204.53,204.53,0,0,1,725.28,470.27ZM743.54,434,608.13,377.38,752,406.44A204.17,204.17,0,0,1,743.54,434Zm10.74-39.22L610.5,365.68l146.64.44A208.63,208.63,0,0,1,754.28,394.73Z"/><circle cx="549.92" cy="359.53" r="108.34"/><circle class="cls-4" cx="598.31" cy="286.4" r="47.4"/><circle class="cls-4" cx="478.63" cy="428.41" r="16.65"/><path d="M768.21,734.45c-39.88,0-70,30.15-70,70.12s30.08,70.33,70,70.33,70-30.15,70-70.13S808.1,734.45,768.21,734.45Zm40.9,70.32c0,24-17.2,41.38-40.9,41.38s-40.89-17.49-40.89-41.58,17.2-41.37,40.89-41.37S809.11,780.68,809.11,804.77Z"/><path d="M284.64,739.58h32.58V869.89H284.64Z"/><polygon points="233.63 798.26 171.78 798.26 171.78 769 240.28 769 246.97 739.58 139.41 739.58 139.41 869.89 171.78 869.89 171.78 826.22 227.28 826.22 233.63 798.26"/><polygon points="461.37 739.58 461.37 815.31 376.9 739.58 362.18 739.58 362.18 869.89 394.78 869.89 394.78 796.24 479.05 869.89 493.55 869.89 493.55 739.58 461.37 739.58"/><polygon points="635.94 739.58 635.94 815.31 551.46 739.58 536.75 739.58 536.75 869.89 569.35 869.89 569.35 796.24 653.61 869.89 668.12 869.89 668.12 739.58 635.94 739.58"/><path d="M925.94,792.58l-13.18-5.49c-5.49-2.2-13-6.88-13.17-14.13-.22-7.46,7.24-11.26,13.61-11.26,12.17,0,24,4.1,32.34,7.82l8-24.42c-5.39-3.09-20.69-10.57-42.26-10.57-27.24,0-45.68,14.49-45.68,39.09,0,24.16,13.17,33.6,32.5,41.29l12.08,4.83c6.59,2.64,17.35,6.37,16.47,14.94s-10.54,12.58-16.25,12.58c-13.9,0-35.13-7.8-44.3-12.26v28.65c8.46,3.93,29.36,11.22,45.18,11.22,28.11,0,49.85-14.72,49.19-45.9C960,805.69,944,800,925.94,792.58Z"/></svg>