<svg id="Layer_1" data-name="Layer 1" xmlns="http://www.w3.org/2000/svg" viewBox="0 0 2111.81 791.49"><defs><style>.cls-1{fill:none;}.cls-2{fill:#f39200;}.cls-3{fill:#f73c14;}.cls-4{fill:#fff;}</style></defs><path class="cls-1" d="M441.92,395.91q30.74,3.4,61.44,7.16,12.58,1.57,25.15,3.19a139.67,139.67,0,0,0,.08-20.14q-12.58,1.53-25.18,3Q472.68,392.71,441.92,395.91Z"/><path class="cls-1" d="M440.89,406.06q29.48,9.33,58.86,19,12,4,24.06,8a141.66,141.66,0,0,0,4-19.74q-12.64-.94-25.28-1.95Q471.68,408.92,440.89,406.06Z"/><path class="cls-1" d="M441,385.76q30.81-2.65,61.65-5,12.66-.92,25.31-1.79a138.45,138.45,0,0,0-3.86-19.77q-12,4-24.12,7.89Q470.5,376.63,441,385.76Z"/><path class="cls-1" d="M337.79,395.58q-30.69-3.4-61.33-7.15-12.58-1.56-25.15-3.18a139.12,139.12,0,0,0-.08,20.1q12.59-1.53,25.18-3Q307.09,398.78,337.79,395.58Z"/><path class="cls-1" d="M341.82,375.64q-27-14.88-53.93-30.07-11-6.27-22-12.58a138,138,0,0,0-7.75,18.56q12.22,3.39,24.43,6.85Q312.23,366.85,341.82,375.64Z"/><path class="cls-1" d="M338.75,405.75q-30.75,2.65-61.54,4.95-12.66.93-25.31,1.79a137.76,137.76,0,0,0,3.85,19.74q12.06-4,24.13-7.88Q309.27,414.87,338.75,405.75Z"/><path class="cls-1" d="M338.82,385.41q-29.43-9.32-58.76-19-12-4-24.05-8a139.65,139.65,0,0,0-4,19.7l25.27,1.95Q308.08,382.55,338.82,385.41Z"/><path class="cls-1" d="M360.81,439q-19.87,23.63-40,47-8.3,9.6-16.63,19.15a138.27,138.27,0,0,0,16.68,11.24q5.72-11.32,11.48-22.63Q346.4,466.29,360.81,439Z"/><path class="cls-1" d="M352.93,432.48q-24.09,19.29-48.42,38.32-10,7.79-20,15.53a139.23,139.23,0,0,0,14.17,14.26q7.8-10,15.66-19.93Q333.48,456.45,352.93,432.48Z"/><path class="cls-1" d="M369.81,443.84q-14.9,27-30.08,53.92-6.25,11-12.57,22a136.57,136.57,0,0,0,18.55,7.75q3.41-12.22,6.85-24.43Q361,473.43,369.81,443.84Z"/><path class="cls-1" d="M346.48,424.56q-27.41,14.22-55,28.13-11.33,5.7-22.69,11.34A141,141,0,0,0,280,480.77q9.6-8.26,19.25-16.49Q322.72,444.27,346.48,424.56Z"/><path class="cls-1" d="M341.69,415.54q-29.65,8.59-59.4,16.86-12.23,3.38-24.48,6.7a139.86,139.86,0,0,0,7.65,18.59q11-6.24,22.11-12.43Q314.54,430.25,341.69,415.54Z"/><path class="cls-1" d="M437.9,415.8q27.09,14.93,54,30.13,11,6.27,22,12.58a137.88,137.88,0,0,0,7.76-18.59q-12.22-3.39-24.43-6.84Q467.54,424.62,437.9,415.8Z"/><path class="cls-1" d="M419,352.59q19.91-23.67,40.08-47.11,8.3-9.59,16.63-19.15A137.79,137.79,0,0,0,459,275.08q-5.71,11.32-11.48,22.63Q433.38,325.24,419,352.59Z"/><path class="cls-1" d="M390.08,343.62q3.39-30.67,7.14-61.33,1.57-12.57,3.19-25.15a140.7,140.7,0,0,0-20.11-.08q1.54,12.58,3,25.19Q386.89,312.91,390.08,343.62Z"/><path class="cls-1" d="M379.9,344.59Q377.26,313.83,375,283q-.92-12.65-1.79-25.31a138,138,0,0,0-19.74,3.86q4,12,7.89,24.12Q370.78,315.1,379.9,344.59Z"/><path class="cls-1" d="M361.09,352.31q-14.22-27.4-28.13-55-5.68-11.34-11.33-22.69a139,139,0,0,0-16.75,11.12q8.26,9.62,16.5,19.25Q341.38,328.55,361.09,352.31Z"/><path class="cls-1" d="M370.12,347.52q-8.61-29.64-16.87-59.39-3.37-12.24-6.69-24.48A136.83,136.83,0,0,0,328,271.3q6.24,11,12.43,22.11Q355.42,320.38,370.12,347.52Z"/><path class="cls-1" d="M438,376q29.7-8.61,59.5-16.89,12.24-3.37,24.48-6.69a138.56,138.56,0,0,0-7.66-18.63q-11,6.24-22.11,12.43Q465.23,361.27,438,376Z"/><path class="cls-1" d="M410,347.75q14.91-27.09,30.13-54,6.27-11,12.58-22a138.42,138.42,0,0,0-18.59-7.76q-3.4,12.22-6.85,24.43Q418.78,318.11,410,347.75Z"/><path class="cls-1" d="M400.24,344.71q9.33-29.46,19-58.81,4-12,8-24a138.26,138.26,0,0,0-19.72-4q-.94,12.64-2,25.27Q403.1,314,400.24,344.71Z"/><path class="cls-1" d="M433.25,367q27.45-14.25,55.06-28.18,11.34-5.69,22.69-11.33a139.49,139.49,0,0,0-11.14-16.78q-9.62,8.28-19.25,16.5Q457,347.24,433.25,367Z"/><path class="cls-1" d="M353.17,358.77q-19.29-24.11-38.31-48.42-7.78-10-15.53-20a139.24,139.24,0,0,0-14.27,14.16q10,7.81,19.94,15.67Q329.2,339.31,353.17,358.77Z"/><path class="cls-1" d="M426.81,359.08q24.13-19.32,48.51-38.38,10-7.79,20-15.52a140.85,140.85,0,0,0-14.19-14.3q-7.82,10-15.66,19.94Q446.3,335.08,426.81,359.08Z"/><path class="cls-1" d="M379.59,446.78q-9.33,29.46-19,58.81-4,12-8,24.06a140.07,140.07,0,0,0,19.73,4q.94-12.64,1.94-25.27Q376.73,477.54,379.59,446.78Z"/><path class="cls-1" d="M346.66,366.65q-23.61-19.87-47-40-9.58-8.29-19.15-16.62a137.37,137.37,0,0,0-11.24,16.67q11.33,5.71,22.63,11.48Q319.36,352.25,346.66,366.65Z"/><path class="cls-1" d="M396.51,509.24q-3.57-30.72-6.77-61.48-3.4,30.74-7.16,61.44-1.56,12.57-3.18,25.14a139.68,139.68,0,0,0,20.14.09Q398,521.83,396.51,509.24Z"/><path class="cls-1" d="M433.06,424.78q23.67,19.92,47.11,40.09,9.58,8.29,19.15,16.62a139,139,0,0,0,11.26-16.7q-11.34-5.71-22.63-11.48Q460.41,439.21,433.06,424.78Z"/><path class="cls-1" d="M418.67,439.08q14.24,27.46,28.18,55.07,5.68,11.33,11.33,22.69A139.45,139.45,0,0,0,475,505.69q-8.26-9.6-16.5-19.24Q438.43,462.89,418.67,439.08Z"/><path class="cls-1" d="M426.57,432.64q19.32,24.15,38.38,48.51,7.79,10,15.53,20A138.71,138.71,0,0,0,494.77,487q-10-7.8-19.94-15.66Q450.59,452.13,426.57,432.64Z"/><path class="cls-1" d="M399.89,446.79q2.66,30.81,5,61.66.93,12.65,1.79,25.31a138.18,138.18,0,0,0,19.77-3.86q-4-12.06-7.88-24.13Q409,476.34,399.89,446.79Z"/><path class="cls-1" d="M409.66,443.86q8.61,29.7,16.89,59.51,3.38,12.23,6.7,24.48a139,139,0,0,0,18.62-7.67q-6.24-11-12.43-22.1Q424.38,471.05,409.66,443.86Z"/><path class="cls-2" d="M441.92,395.91q30.76-3.21,61.49-6.77,12.58-1.49,25.18-3-.24-3.57-.67-7.11-12.64.87-25.31,1.79-30.84,2.29-61.65,5,29.54-9.15,59-18.63,12.06-3.92,24.12-7.89c-.62-2.3-1.31-4.58-2-6.83q-12.24,3.31-24.48,6.69Q467.73,367.37,438,376q27.18-14.73,54.21-29.78,11.07-6.19,22.11-12.43-1.59-3.19-3.35-6.3-11.36,5.64-22.69,11.33Q460.69,352.73,433.25,367,457,347.22,480.61,327.2q9.64-8.24,19.25-16.5-2.19-2.82-4.51-5.52-10,7.74-20,15.52-24.37,19.05-48.51,38.38,19.47-24,38.69-48.26,7.85-9.94,15.66-19.94c-1.79-1.56-3.63-3.07-5.5-4.55q-8.34,9.57-16.63,19.15Q438.86,328.93,419,352.59q14.42-27.36,28.53-54.88,5.76-11.31,11.48-22.63c-2.06-1.18-4.16-2.31-6.28-3.39q-6.31,11-12.58,22-15.24,26.92-30.13,54,8.8-29.64,17.27-59.39,3.45-12.21,6.85-24.43c-2.25-.75-4.52-1.45-6.83-2.08q-4,12-8,24-9.68,29.36-19,58.81,2.85-30.76,5.35-61.57,1-12.63,2-25.27c-1.07-.14-2.15-.27-3.23-.38-1.31-.13-2.61-.25-3.9-.35q-1.62,12.57-3.19,25.15-3.75,30.65-7.14,61.33-3.21-30.71-6.76-61.37-1.49-12.6-3-25.19c-2.39.16-4.77.39-7.14.67Q374,270.39,375,283q2.3,30.79,4.95,61.55-9.12-29.49-18.59-58.88-3.92-12.06-7.89-24.12c-2.31.63-4.6,1.31-6.86,2.06q3.31,12.24,6.69,24.48,8.25,29.75,16.87,59.39-14.72-27.13-29.73-54.11Q334.2,282.34,328,271.3c-2.14,1.07-4.25,2.18-6.33,3.36Q327.27,286,333,297.35q13.91,27.57,28.13,55Q341.37,328.57,321.38,305q-8.24-9.63-16.5-19.25-2.83,2.21-5.55,4.54,7.74,10,15.53,20,19,24.33,38.31,48.42-24-19.44-48.17-38.62-10-7.86-19.94-15.67c-1.57,1.8-3.09,3.65-4.57,5.53q9.56,8.33,19.15,16.62,23.39,20.16,47,40-27.3-14.4-54.78-28.49-11.31-5.76-22.63-11.48c-1.18,2.07-2.32,4.17-3.4,6.31q11,6.31,22,12.58,26.88,15.19,53.93,30.07-29.6-8.79-59.29-17.24-12.21-3.45-24.43-6.85c-.75,2.26-1.45,4.54-2.09,6.86q12,4,24.05,8,29.32,9.66,58.76,19-30.74-2.85-61.51-5.35L252,378.11c-.14,1.08-.27,2.16-.38,3.24-.14,1.3-.25,2.6-.35,3.9q12.57,1.62,25.15,3.18,30.65,3.76,61.33,7.15-30.71,3.19-61.38,6.75-12.6,1.49-25.18,3,.24,3.6.67,7.14,12.66-.87,25.31-1.79,30.8-2.28,61.54-4.95-29.47,9.13-58.87,18.6-12.08,3.91-24.13,7.88.94,3.47,2.06,6.87,12.26-3.33,24.48-6.7,29.76-8.25,59.4-16.86-27.13,14.7-54.12,29.72-11.07,6.19-22.11,12.43c1.07,2.14,2.19,4.26,3.36,6.34q11.37-5.65,22.69-11.34,27.57-13.89,55-28.13-23.76,19.72-47.28,39.72-9.65,8.22-19.25,16.49c1.46,1.89,3,3.74,4.53,5.56q10-7.75,20-15.53,24.33-19,48.42-38.32-19.44,24-38.62,48.18-7.85,9.94-15.66,19.93c1.8,1.57,3.64,3.1,5.52,4.57q8.34-9.56,16.63-19.15,20.15-23.38,40-47-14.38,27.31-28.48,54.78-5.76,11.31-11.48,22.63,3.11,1.79,6.31,3.4,6.31-11,12.57-22,15.21-26.86,30.08-53.92-8.79,29.6-17.25,59.28-3.45,12.21-6.85,24.43,3.39,1.14,6.86,2.1,4.05-12,8-24.06,9.67-29.35,19-58.81-2.83,30.77-5.35,61.57-1,12.63-1.94,25.27c1.06.14,2.14.26,3.21.38,1.3.13,2.59.25,3.89.34q1.62-12.57,3.18-25.14,3.76-30.7,7.16-61.44,3.22,30.75,6.77,61.48,1.49,12.6,3,25.19,3.57-.25,7.1-.67-.87-12.66-1.79-25.31-2.3-30.85-5-61.66,9.15,29.54,18.64,59,3.92,12.08,7.88,24.13,3.45-.95,6.84-2-3.33-12.26-6.7-24.48-8.26-29.81-16.89-59.51,14.74,27.19,29.78,54.22,6.19,11.06,12.43,22.1c2.13-1.06,4.24-2.17,6.31-3.34q-5.64-11.36-11.33-22.69-13.94-27.61-28.18-55.07,19.75,23.79,39.78,47.37,8.24,9.63,16.5,19.24c1.88-1.45,3.72-3,5.53-4.51q-7.74-10-15.53-20-19.05-24.37-38.38-48.51,24,19.49,48.26,38.69,10,7.86,19.94,15.66,2.34-2.69,4.55-5.5-9.56-8.33-19.15-16.62-23.43-20.19-47.11-40.09Q460.42,439.2,488,453.31q11.3,5.76,22.63,11.48c1.18-2.06,2.3-4.15,3.38-6.28q-11-6.31-22-12.58Q465,430.7,437.9,415.8q29.64,8.81,59.39,17.28,12.21,3.45,24.43,6.84c.75-2.24,1.45-4.52,2.09-6.82q-12-4.05-24.06-8-29.37-9.69-58.86-19,30.8,2.83,61.62,5.35,12.64,1,25.28,1.95c.13-1.07.26-2.14.37-3.22.14-1.3.25-2.59.35-3.88q-12.57-1.62-25.15-3.19Q472.66,399.31,441.92,395.91Z"/><path class="cls-3" d="M572.14,401.21h0c0-1.59.07-3.19.08-4.79v-.23c0-1.6,0-3.19-.05-4.79h0a184.55,184.55,0,0,0-2.43-25.84h0c-.54-3.24-1.15-6.45-1.86-9.63h0A179,179,0,0,0,560.44,331h0q-1.74-4.58-3.73-9.07h0A179.84,179.84,0,0,0,544.51,299h0q-2.6-4.15-5.45-8.17h0a185,185,0,0,0-16.43-20.09h0q-1.65-1.75-3.35-3.47l-.06-.06-.05-.05c-1.14-1.15-2.29-2.27-3.46-3.38h0a184.24,184.24,0,0,0-20-16.56h0c-2.67-1.9-5.38-3.74-8.13-5.49h0a180.53,180.53,0,0,0-22.85-12.34h0c-3-1.34-6-2.61-9.06-3.78h0A180.76,180.76,0,0,0,430.83,218h0c-3.19-.73-6.4-1.36-9.63-1.92h0a182.86,182.86,0,0,0-25.83-2.58h0c-1.63-.05-3.27-.08-4.91-.09h-.57c-1.45,0-2.89,0-4.34.06h0A183.53,183.53,0,0,0,355,216.76l-.13,0a180.71,180.71,0,0,0-29.66,8.42h0a181.84,181.84,0,0,0-63.79,41.23c-1.17,1.16-2.31,2.33-3.44,3.51h0a183.92,183.92,0,0,0-22.06,28.13h0a182.74,182.74,0,0,0-.59,194.4h0a184.16,184.16,0,0,0,25.31,31.79,181.78,181.78,0,0,0,63.54,41.61h0A181.92,181.92,0,0,0,384.45,578h0c1.63,0,3.27.08,4.91.09h.57a184.17,184.17,0,0,0,35-3.35h0a180.9,180.9,0,0,0,89.95-46.25h0q1.79-1.68,3.53-3.41c1.17-1.16,2.31-2.33,3.44-3.51h0a185.41,185.41,0,0,0,16.56-20h0q2.87-4,5.5-8.12h0a179.78,179.78,0,0,0,12.33-22.85h0q2-4.47,3.79-9.06h0a180.34,180.34,0,0,0,7.58-24.84h0q1.1-4.77,1.92-9.62h0a184.22,184.22,0,0,0,2.59-25.82Zm-11.71-9.86L439.78,391,558.22,367.8A171.8,171.8,0,0,1,560.43,391.35ZM358.25,356.92l-85.06-85.57a172,172,0,0,1,18.31-15Zm-58.58-106a167.94,167.94,0,0,1,20.89-11.12l45.87,111.69Zm40.4,139.76-120.65-.36a171.58,171.58,0,0,1,2.35-23.54ZM223.69,357.15a170,170,0,0,1,6.91-22.64L342,381.06ZM340,400.5,221.6,423.69a171.8,171.8,0,0,1-2.21-23.55Zm1.88,9.64L230.24,456a168.61,168.61,0,0,1-6.78-22.68Zm-76.4,102.32a171.93,171.93,0,0,1-15-18.3l100.55-66.75ZM358,434.37,290.66,534.52a172.37,172.37,0,0,1-18.22-15.09Zm8.15,5.49-46.54,111.4A168,168,0,0,1,298.79,540Zm51.7,124.19a172.1,172.1,0,0,1-23.56,2.22l.37-120.65ZM404.31,443.73l45.86,111.69a168.48,168.48,0,0,1-22.67,6.78Zm9.08-3.73,66.76,100.57a169.28,169.28,0,0,1-20.89,11.12Zm143-81.85-118.47,23.2,111.69-45.87A168.48,168.48,0,0,1,556.36,358.15Zm-10.51-31.76L434.16,372.26,534.73,305.5A168,168,0,0,1,545.85,326.39Zm-16.57-29.06L428.73,364.08,514.3,279A172,172,0,0,1,529.28,297.33Zm-21.9-25.27-85.57,85.06L489.16,257A172.16,172.16,0,0,1,507.38,272.06ZM481,251.47,413.66,351.63,460.2,240.22A169.44,169.44,0,0,1,481,251.47Zm-29.89-15L404.6,347.85l23.9-118.32A167.13,167.13,0,0,1,451.14,236.44Zm-32.27-8.83L395,345.9l.37-120.65A171.6,171.6,0,0,1,418.87,227.61ZM385.15,345.87,362,227.44a172,172,0,0,1,23.55-2.22ZM352.32,229.29l23.19,118.47L329.64,236.07A169.05,169.05,0,0,1,352.32,229.29Zm-1,134.56L251.13,296.49a173.5,173.5,0,0,1,15.09-18.21ZM345.8,372,234.39,325.45a169.24,169.24,0,0,1,11.24-20.82ZM234,465.09l111.69-45.86L245.08,486A168.71,168.71,0,0,1,234,465.09Zm141.25-21.45L351.31,562a168.43,168.43,0,0,1-22.63-6.91ZM361,563.88l23.9-118.29-.37,120.65A171.6,171.6,0,0,1,361,563.88Zm127.37-28.76L421.57,434.57l85.06,85.57A172,172,0,0,1,488.32,535.12Zm25.27-21.91-85.05-85.57L528.69,495A172.37,172.37,0,0,1,513.59,513.21Zm20.6-26.35L434,419.49,545.43,466A170,170,0,0,1,534.19,486.86Zm15-29.89L437.8,410.43l118.33,23.91A169.44,169.44,0,0,1,549.22,457Zm8.83-32.26-118.3-23.9,120.65.36A173.32,173.32,0,0,1,558.05,424.71Z"/><circle cx="389.91" cy="395.74" r="89.13"/><circle class="cls-4" cx="429.72" cy="335.58" r="39"/><circle class="cls-4" cx="331.25" cy="452.42" r="13.7"/><path d="M1617.75,290.56c-59.44,0-104.27,44.92-104.27,104.5,0,59.75,44.83,104.8,104.27,104.8S1722,454.94,1722,395.36C1722,335.61,1677.19,290.56,1617.75,290.56Zm61,104.8c0,35.73-25.64,61.66-61,61.66s-61-26.06-61-62c0-35.73,25.63-61.66,61-61.66S1678.7,359.46,1678.7,395.36Z"/><path d="M897.09,298.2h48.55V492.41H897.09Z"/><polygon points="821.07 385.66 728.89 385.66 728.89 342.05 830.98 342.05 840.95 298.2 680.65 298.2 680.65 492.4 728.89 492.4 728.89 427.32 811.6 427.32 821.07 385.66"/><polygon points="1160.46 298.2 1160.46 411.07 1034.57 298.2 1012.64 298.2 1012.64 492.4 1061.23 492.4 1061.23 382.64 1186.81 492.4 1208.42 492.4 1208.42 298.2 1160.46 298.2"/><polygon points="1420.62 298.2 1420.62 411.07 1294.73 298.2 1272.8 298.2 1272.8 492.4 1321.38 492.4 1321.38 382.64 1446.96 492.4 1468.58 492.4 1468.58 298.2 1420.62 298.2"/><path d="M1852.8,377.18,1833.17,369c-8.18-3.27-19.31-10.25-19.64-21.05-.33-11.12,10.8-16.79,20.29-16.79,18.14,0,35.8,6.12,48.2,11.66l11.84-36.4c-8-4.6-30.82-15.74-63-15.74-40.59,0-68.08,21.6-68.08,58.25,0,36,19.64,50.08,48.44,61.54l18,7.2c9.82,3.92,25.86,9.49,24.55,22.25s-15.71,18.76-24.22,18.76c-20.72,0-52.34-11.63-66-18.27v42.7c12.6,5.86,43.74,16.71,67.32,16.71,41.89,0,74.29-21.93,73.31-68.41C1903.53,396.72,1879.64,388.31,1852.8,377.18Z"/></svg>